<svg xmlns="http://www.w3.org/2000/svg" width="24" height="24"><path fill="#fff" opacity="0" d="M0 0h24v24H0z"/><g fill="#aaa9a5"><path d="M12.295 5.368a7.93 7.93 0 0 0-6.253 12.82l-1.35 1.7c-.228.292-.178.714.112.945a.74.74 0 0 0 .427.135.72.72 0 0 0 .54-.247l1.215-1.53a7.9 7.9 0 0 0 10.661 0l1.215 1.53a.72.72 0 0 0 .54.247.74.74 0 0 0 .427-.135c.3-.23.34-.653.112-.945l-1.35-1.7c1.095-1.4 1.7-3.1 1.687-4.88a8.01 8.01 0 0 0-7.985-7.939zm0 14.53a6.59 6.59 0 1 1 6.59-6.59 6.58 6.58 0 0 1-1.93 4.66c-1.237 1.235-2.913 1.93-4.66 1.93zM9.372 4.175a.65.65 0 0 0 0-.945 4.18 4.18 0 0 0-5.87.044c-1.615 1.617-1.636 4.23-.044 5.87.123.13.294.2.472.2.18.005.35-.068.472-.2zm-4.972 0a2.81 2.81 0 0 1 2-.832 2.95 2.95 0 0 1 1.484.4l-3.9 3.92C3.3 6.543 3.478 5.1 4.4 4.176zm16.78-.945a4.17 4.17 0 0 0-5.915 0 .65.65 0 0 0 0 .945l4.948 4.97c.123.13.294.2.472.2s.35-.068.472-.2a4.23 4.23 0 0 0 .023-5.916zm-.562 4.408l-3.892-3.9a2.83 2.83 0 0 1 1.484-.4 2.79 2.79 0 0 1 2 .832c.905.927 1.072 2.347.407 3.46z" stroke="#aaa9a5" stroke-width=".25"/><path d="M11.556 15.222c1.08 0 2.05-.65 2.464-1.646s.185-2.144-.578-2.906-1.9-.99-2.906-.578-1.646 1.385-1.646 2.464c.004 1.47 1.196 2.663 2.667 2.667zm2.8-.49l1.51 1.51a.44.44 0 0 1-.192.746.44.44 0 0 1-.43-.124l-1.51-1.51a3.5 3.5 0 0 1-2.178.756C9.592 16.11 8 14.52 8 12.555S9.592 9 11.556 9s3.556 1.592 3.556 3.556a3.41 3.41 0 0 1-.756 2.178z"/></g></svg>